<?xml version="1.0" encoding="utf-8"?>
<!-- Generator: Adobe Illustrator 28.0.0, SVG Export Plug-In . SVG Version: 6.00 Build 0)  -->
<svg version="1.1" id="Layer_1" xmlns="http://www.w3.org/2000/svg" xmlns:xlink="http://www.w3.org/1999/xlink" x="0px" y="0px"
	 viewBox="0 0 1000 1000" style="enable-background:new 0 0 1000 1000;" xml:space="preserve">
<style type="text/css">
	.st0{fill:#F15725;}
	.st1{fill:#FFFFFF;}
	.st2{fill:#090909;}
	.st3{fill:#010101;}
</style>
<g>
	<g>
		<g>
			<path class="st0" d="M295.8,487.7h-12v-1.5c0-3.7-0.9-6.2-2.6-7.5c-1.9-1.4-5.2-2.1-9.8-2.1h-1.8c-11.1,0-11.1,4.9-11.1,6.6
				c0,1.8,0.6,3.2,1.8,4.2c1.3,1.1,3.3,2,6,2.6l14.4,3.7c4.8,1.2,8.7,2.5,11.6,3.7c1.6,0.7,3,1.6,4.3,2.7
				C296.6,495.8,296.3,491.7,295.8,487.7z M269.7,540.3c-18.4,0-28.4-7.8-29.7-23.1c-0.1-0.6-0.1-1.8-0.1-3.4v-1.5H258v1.5
				c0,3.6,0.9,6.1,2.8,7.3c2.1,1.4,5.4,2.1,10,2.1h3.7c3.9,0,6.8-0.6,8.5-1.8c1.6-1.1,2.3-2.7,2.3-4.7c0-1.8-0.5-3.2-1.7-4.2
				c-1.3-1.1-3.3-2-6.2-2.6l-14.5-3.5c-4.8-1.1-8.8-2.3-11.7-3.6c-3-1.3-5.7-3.5-7.8-6.5c-2.2-3.1-3.3-7.4-3.3-12.8
				c0-7.5,2.5-13.4,7.6-17.6c4.9-4.1,12.5-6.2,22.4-6.2h2c6.8,0,12.4,1.1,16.9,3.2c-14.5-34.6-48.7-58.9-88.6-58.9
				c-53,0-96.1,43-96.1,96.1c0,53,43,96,96.1,96c39.6,0,73.6-23.9,88.3-58.1c-4.2,1.6-9.3,2.4-15.2,2.4H269.7z M233.4,538.7h-17.8
				v-30.4h-30v30.4h-17.8v-77.5h17.8v29.6h30v-29.6h17.8V538.7z"/>
		</g>
		<polygon class="st1" points="233.4,461.3 233.4,538.7 215.5,538.7 215.5,508.3 185.5,508.3 185.5,538.7 167.7,538.7 167.7,461.3 
			185.5,461.3 185.5,490.9 215.5,490.9 215.5,461.3 		"/>
		<path class="st1" d="M296.6,500c0,13.5-2.8,26.3-7.8,37.9c-4.2,1.6-9.3,2.4-15.2,2.4h-4c-18.4,0-28.4-7.8-29.7-23.1
			c-0.1-0.6-0.1-1.8-0.1-3.4v-1.5H258v1.5c0,3.6,0.9,6.1,2.8,7.3c2.1,1.4,5.4,2.1,10,2.1h3.7c3.9,0,6.8-0.6,8.5-1.8
			c1.6-1.1,2.3-2.7,2.3-4.7c0-1.8-0.5-3.2-1.7-4.2c-1.3-1.1-3.3-2-6.2-2.6l-14.5-3.5c-4.8-1.1-8.8-2.3-11.7-3.6
			c-3-1.3-5.7-3.5-7.8-6.5c-2.2-3.1-3.3-7.4-3.3-12.8c0-7.5,2.5-13.4,7.6-17.6c4.9-4.1,12.5-6.2,22.4-6.2h2c6.8,0,12.4,1.1,16.9,3.2
			c3.3,7.8,5.5,16.1,6.6,24.8h-12v-1.5c0-3.7-0.9-6.2-2.6-7.5c-1.9-1.4-5.2-2.1-9.8-2.1h-1.8c-11.1,0-11.1,4.9-11.1,6.6
			c0,1.8,0.6,3.2,1.8,4.2c1.3,1.1,3.3,2,6,2.6l14.4,3.7c4.8,1.2,8.7,2.5,11.6,3.7C293.8,498,295.3,498.9,296.6,500z"/>
	</g>
	<g>
		<g>
			<g>
				<path class="st2" d="M395.7,483.9h-33.6v31H347v-76h15.2v30.2h33.6v-30.2h15.2v76h-15.2V483.9z"/>
				<path class="st2" d="M420.9,438.5h14.7v14.2h-14.7V438.5z M420.9,460.2h14.7v54.7h-14.7V460.2z"/>
				<path class="st2" d="M466.8,494.3c-0.1-0.6-0.1-1.7-0.1-3.3h15.5c0,4.2,1.2,7.2,3.6,8.7c2.4,1.6,6,2.3,11,2.3h3.8
					c4.3,0,7.5-0.7,9.5-2.2c2-1.5,3-3.5,3-6c0-2.3-0.7-4.1-2.2-5.4c-1.5-1.3-3.8-2.3-6.9-3l-14.8-3.5c-4.9-1.1-8.8-2.3-11.6-3.6
					c-2.9-1.2-5.3-3.3-7.3-6.2c-2-2.9-3-6.9-3-12.2c0-7.2,2.4-12.8,7.2-16.8c4.8-4,12.1-5.9,21.8-5.9h2c9.1,0,16,1.9,20.7,5.6
					c4.7,3.7,7.4,9.2,8,16.5c0.1,0.7,0.1,1.8,0.1,3.4h-15.5c0-4.3-1.1-7.2-3.3-8.8c-2.2-1.6-5.8-2.4-10.8-2.4h-1.8
					c-8.6,0-12.9,2.7-12.9,8.2c0,2.3,0.8,4.1,2.3,5.4c1.6,1.3,3.8,2.3,6.7,3l14.7,3.7c4.8,1.2,8.7,2.4,11.6,3.7
					c2.9,1.3,5.4,3.4,7.5,6.3c2.1,2.9,3.1,6.9,3.1,11.9c0,7-2.5,12.6-7.4,16.6s-12.1,6.1-21.6,6.1h-4
					C477.7,516.5,468.1,509.1,466.8,494.3z"/>
				<path class="st2" d="M540,510.1c-4.2-4.3-6.4-10.6-6.4-18.9v-7.3c0-8.3,2.1-14.6,6.4-18.9c4.3-4.3,10.6-6.4,19-6.4h1.6
					c8.4,0,14.8,2.1,19,6.4c4.3,4.3,6.4,10.6,6.4,18.9v7.3c0,8.3-2.1,14.6-6.4,18.9c-4.2,4.3-10.6,6.4-19,6.4H559
					C550.6,516.5,544.3,514.4,540,510.1z M559.2,502.9h1.2c7.2,0,10.8-3.8,10.8-11.4v-8c0-7.5-3.6-11.3-10.8-11.3h-1.2
					c-7.2,0-10.8,3.8-10.8,11.3v8C548.4,499.1,552,502.9,559.2,502.9z"/>
				<path class="st2" d="M608,438.9v54.4c0,3,0.7,5.1,2.1,6.3c1.4,1.2,3.9,1.8,7.4,1.8h2.5v13.5h-5.9c-5,0-8.9-0.7-12-2.1
					c-3-1.4-5.2-3.8-6.7-7.1c-1.5-3.3-2.2-7.8-2.2-13.5v-53.2H608z"/>
				<path class="st2" d="M622.8,491.9v-31.7h14.7v31.4c0,7.2,3.3,10.7,9.9,10.7h1.2c6.6,0,9.9-3.6,9.9-10.7v-31.4H673v31.7
					c0,16.4-8.2,24.6-24.6,24.6h-1C631,516.5,622.8,508.3,622.8,491.9z"/>
				<path class="st2" d="M695.3,448.3v11.9h15.2v13.1h-15.2v18.6c0,3.9,1,6.5,3.1,7.9c2.1,1.3,4.9,2,8.5,2h4.8v13.2h-7.1
					c-15.9,0-23.9-7.4-23.9-22.1v-44.5H695.3z"/>
				<path class="st2" d="M717.4,438.5h14.7v14.2h-14.7V438.5z M717.4,460.2h14.7v54.7h-14.7V460.2z"/>
				<path class="st2" d="M745.4,510.1c-4.2-4.3-6.4-10.6-6.4-18.9v-7.3c0-8.3,2.1-14.6,6.4-18.9c4.3-4.3,10.6-6.4,19-6.4h1.6
					c8.4,0,14.8,2.1,19,6.4c4.3,4.3,6.4,10.6,6.4,18.9v7.3c0,8.3-2.1,14.6-6.4,18.9c-4.2,4.3-10.6,6.4-19,6.4h-1.6
					C756,516.5,749.6,514.4,745.4,510.1z M764.6,502.9h1.2c7.2,0,10.8-3.8,10.8-11.4v-8c0-7.5-3.6-11.3-10.8-11.3h-1.2
					c-7.2,0-10.8,3.8-10.8,11.3v8C753.8,499.1,757.4,502.9,764.6,502.9z"/>
				<path class="st2" d="M822.6,458.6h2.2c16.3,0,24.4,8.2,24.4,24.6v31.7h-14.7v-31.4c0-7.2-3.4-10.7-10.3-10.7h-1.2
					c-6.9,0-10.3,3.6-10.3,10.7v31.4h-14.7v-31.7C798.2,466.8,806.3,458.6,822.6,458.6z"/>
			</g>
			<g>
				<path class="st2" d="M859.8,466.7c-3.3-3.2-5-7.7-5-13.4v-3.6c0-5.7,1.7-10.1,5-13.4c3.3-3.2,7.8-4.9,13.6-4.9h3.7
					c5.7,0,10.3,1.6,13.6,4.9c3.3,3.2,5,7.7,5,13.4v3.6c0,5.7-1.7,10.1-5,13.4c-3.3,3.2-7.8,4.9-13.6,4.9h-3.7
					C867.6,471.5,863.1,469.9,859.8,466.7z M872.9,465.6h4.6c7.8,0,11.7-4,11.7-11.9v-4.3c0-8-3.9-11.9-11.7-11.9h-4.6
					c-7.8,0-11.7,4-11.7,11.9v4.3C861.2,461.6,865.1,465.6,872.9,465.6z M866.9,441.5h9.1c2.5,0,4.4,0.6,5.8,1.7
					c1.3,1.1,2,2.6,2,4.5v0.5c0,2.4-1,4.1-3,5.2l3.9,6.9h-7.2l-3-6.1h-1.5v6.1h-6.1V441.5z M875.7,449.9c1.3,0,1.9-0.6,1.9-1.7v-0.2
					c0-1.2-0.6-1.8-1.9-1.8h-2.6v3.6H875.7z"/>
			</g>
		</g>
		<g>
			<path class="st3" d="M347,561.4v-21.7h8.8c0.2,0,0.5,0,0.8,0c0.3,0,0.6,0,0.9,0.1c1.2,0.2,2.2,0.6,3,1.2c0.8,0.6,1.4,1.4,1.8,2.4
				c0.4,1,0.6,2,0.6,3.2c0,1.7-0.4,3.2-1.3,4.5c-0.9,1.3-2.2,2-4,2.3l-1.3,0.2h-6.2v7.8H347z M350.1,550.6h5.5c0.2,0,0.4,0,0.7,0
				c0.2,0,0.5-0.1,0.7-0.1c0.6-0.2,1.2-0.4,1.6-0.8c0.4-0.4,0.7-0.9,0.8-1.4c0.2-0.5,0.3-1.1,0.3-1.6c0-0.5-0.1-1.1-0.3-1.6
				c-0.2-0.5-0.5-1-0.8-1.4c-0.4-0.4-0.9-0.7-1.6-0.8c-0.2-0.1-0.5-0.1-0.7-0.1c-0.2,0-0.5,0-0.7,0h-5.5V550.6z M359.7,561.4
				l-4.3-8.8l3.2-0.8l4.7,9.7H359.7z"/>
			<path class="st3" d="M371.2,561.8c-1.2,0-2.2-0.2-3-0.7c-0.8-0.4-1.4-1-1.8-1.8c-0.4-0.7-0.6-1.6-0.6-2.4c0-0.8,0.1-1.5,0.4-2.2
				c0.3-0.6,0.7-1.2,1.3-1.6c0.6-0.4,1.3-0.8,2.1-1.1c0.7-0.2,1.5-0.4,2.5-0.6c0.9-0.2,1.9-0.3,2.9-0.5c1-0.1,2-0.3,3-0.4l-1.1,0.6
				c0-1.3-0.2-2.2-0.8-2.8c-0.6-0.6-1.5-0.9-2.9-0.9c-0.9,0-1.6,0.2-2.4,0.6c-0.7,0.4-1.2,1.1-1.5,2l-2.9-0.9
				c0.4-1.4,1.2-2.5,2.3-3.3c1.1-0.8,2.6-1.2,4.5-1.2c1.5,0,2.7,0.2,3.8,0.7c1.1,0.5,1.9,1.3,2.4,2.4c0.3,0.5,0.4,1.1,0.5,1.7
				s0.1,1.2,0.1,1.9v10h-2.8v-3.7l0.5,0.5c-0.7,1.2-1.5,2.2-2.6,2.8C374,561.5,372.7,561.8,371.2,561.8z M371.7,559.2
				c0.9,0,1.7-0.2,2.3-0.5c0.6-0.3,1.2-0.7,1.6-1.2c0.4-0.5,0.6-1,0.8-1.5c0.2-0.5,0.3-1,0.3-1.6c0-0.6,0-1.1,0-1.4l1,0.4
				c-1,0.2-1.9,0.3-2.7,0.4c-0.8,0.1-1.6,0.2-2.2,0.4c-0.7,0.1-1.2,0.3-1.8,0.4c-0.4,0.2-0.8,0.3-1.2,0.5c-0.3,0.2-0.6,0.5-0.8,0.8
				c-0.2,0.3-0.3,0.7-0.3,1.1c0,0.4,0.1,0.8,0.3,1.2c0.2,0.4,0.5,0.6,1,0.9C370.5,559.1,371.1,559.2,371.7,559.2z"/>
			<path class="st3" d="M390.2,561.8c-1.5,0-2.8-0.4-3.9-1.1c-1.1-0.8-2-1.8-2.5-3.1c-0.6-1.3-0.9-2.8-0.9-4.4
				c0-1.6,0.3-3.1,0.9-4.4c0.6-1.3,1.5-2.3,2.6-3.1c1.1-0.7,2.4-1.1,4-1.1c1.5,0,2.8,0.4,3.9,1.1c1.1,0.7,1.8,1.8,2.4,3.1
				c0.5,1.3,0.8,2.8,0.8,4.4s-0.3,3.1-0.8,4.4c-0.5,1.3-1.3,2.3-2.4,3.1C393.1,561.4,391.8,561.8,390.2,561.8z M390.7,559
				c1,0,1.9-0.2,2.5-0.7c0.7-0.5,1.1-1.2,1.4-2c0.3-0.9,0.5-1.9,0.5-3s-0.2-2.1-0.5-3c-0.3-0.9-0.8-1.5-1.4-2
				c-0.6-0.5-1.5-0.7-2.4-0.7c-1,0-1.9,0.3-2.6,0.8c-0.7,0.5-1.2,1.2-1.5,2.1c-0.3,0.9-0.5,1.8-0.5,2.9c0,1.1,0.2,2,0.5,2.9
				c0.3,0.9,0.8,1.6,1.5,2.1C388.8,558.7,389.7,559,390.7,559z M394.7,568.6v-11.8h0.4v-11.7h2.8v23.5H394.7z"/>
			<path class="st3" d="M406.7,561.8c-1.2,0-2.2-0.2-3-0.7c-0.8-0.4-1.4-1-1.8-1.8c-0.4-0.7-0.6-1.6-0.6-2.4c0-0.8,0.1-1.5,0.4-2.2
				c0.3-0.6,0.7-1.2,1.3-1.6c0.6-0.4,1.3-0.8,2.1-1.1c0.7-0.2,1.5-0.4,2.5-0.6c0.9-0.2,1.9-0.3,2.9-0.5c1-0.1,2-0.3,3-0.4l-1.1,0.6
				c0-1.3-0.2-2.2-0.8-2.8c-0.6-0.6-1.5-0.9-2.9-0.9c-0.9,0-1.6,0.2-2.4,0.6c-0.7,0.4-1.2,1.1-1.5,2l-2.9-0.9
				c0.4-1.4,1.2-2.5,2.3-3.3c1.1-0.8,2.6-1.2,4.5-1.2c1.5,0,2.7,0.2,3.8,0.7c1.1,0.5,1.9,1.3,2.4,2.4c0.3,0.5,0.4,1.1,0.5,1.7
				s0.1,1.2,0.1,1.9v10h-2.8v-3.7l0.5,0.5c-0.7,1.2-1.5,2.2-2.6,2.8C409.5,561.5,408.2,561.8,406.7,561.8z M407.3,559.2
				c0.9,0,1.7-0.2,2.3-0.5c0.6-0.3,1.2-0.7,1.6-1.2c0.4-0.5,0.6-1,0.8-1.5c0.2-0.5,0.3-1,0.3-1.6c0-0.6,0-1.1,0-1.4l1,0.4
				c-1,0.2-1.9,0.3-2.7,0.4c-0.8,0.1-1.6,0.2-2.2,0.4c-0.7,0.1-1.2,0.3-1.8,0.4c-0.4,0.2-0.8,0.3-1.2,0.5c-0.3,0.2-0.6,0.5-0.8,0.8
				c-0.2,0.3-0.3,0.7-0.3,1.1c0,0.4,0.1,0.8,0.3,1.2c0.2,0.4,0.5,0.6,1,0.9C406.1,559.1,406.6,559.2,407.3,559.2z"/>
			<path class="st3" d="M419.3,561.4v-16.3h2.8v4.7h0.4v11.6H419.3z M429.1,561.4l0-10.1c0-1.2-0.3-2.1-0.9-2.8
				c-0.6-0.7-1.4-1-2.4-1c-1,0-1.8,0.3-2.4,1c-0.6,0.7-0.9,1.6-0.9,2.7l-1.5-1c0-1.1,0.3-2,0.8-2.9c0.5-0.8,1.2-1.5,2.1-2
				s1.9-0.7,3-0.7c1.2,0,2.1,0.2,3,0.7c0.8,0.5,1.4,1.2,1.9,2c0.4,0.9,0.6,1.9,0.6,3l0,10.9H429.1z M438.8,561.4l0-10.2
				c0-1.2-0.3-2.1-0.9-2.8c-0.6-0.7-1.4-1-2.4-1c-0.6,0-1.2,0.1-1.7,0.4c-0.5,0.3-0.9,0.7-1.2,1.2c-0.3,0.5-0.5,1.2-0.5,2.1
				l-1.5-0.8c0-1.1,0.2-2.2,0.7-3c0.5-0.9,1.2-1.5,2.1-2s1.9-0.7,2.9-0.7c1.8,0,3.1,0.5,4.1,1.6c1,1.1,1.4,2.5,1.4,4.2l0,10.9H438.8
				z"/>
			<path class="st3" d="M446.2,561.4v-22.2h3.2v22.2H446.2z"/>
			<path class="st3" d="M454.2,542.4v-3.1h3.2v3.1H454.2z M454.2,561.4v-16.3h3.2v16.3H454.2z"/>
			<path class="st3" d="M468.2,542.4v-3.1h3.2v3.1H468.2z M468.2,561.4v-16.3h3.2v16.3H468.2z"/>
			<path class="st3" d="M475.9,561.4v-16.3h2.8v4.7h0.4v11.6H475.9z M487.3,561.4v-8c0-0.6-0.1-1.3-0.2-2c-0.1-0.7-0.3-1.3-0.6-1.9
				c-0.3-0.6-0.7-1-1.3-1.4c-0.5-0.4-1.2-0.5-2.1-0.5c-0.6,0-1.1,0.1-1.6,0.3c-0.5,0.2-0.9,0.5-1.3,0.9c-0.4,0.4-0.7,1-0.9,1.6
				c-0.2,0.7-0.3,1.5-0.3,2.5l-2-0.7c0-1.5,0.3-2.8,0.8-3.9c0.6-1.1,1.3-2,2.4-2.6c1-0.6,2.3-1,3.8-1c1.1,0,2.1,0.2,2.8,0.5
				c0.8,0.4,1.4,0.8,1.9,1.4c0.5,0.6,0.8,1.2,1.1,1.9c0.3,0.7,0.4,1.4,0.5,2c0.1,0.7,0.1,1.2,0.1,1.7v9.1H487.3z"/>
			<path class="st3" d="M500.9,561.8c-1.5,0-2.8-0.4-3.9-1.1c-1.1-0.8-2-1.8-2.5-3.1c-0.6-1.3-0.9-2.8-0.9-4.4
				c0-1.6,0.3-3.1,0.9-4.4c0.6-1.3,1.5-2.3,2.6-3.1c1.1-0.7,2.4-1.1,4-1.1c1.5,0,2.8,0.4,3.9,1.1c1.1,0.7,1.8,1.8,2.4,3.1
				c0.5,1.3,0.8,2.8,0.8,4.4s-0.3,3.1-0.8,4.4c-0.5,1.3-1.3,2.3-2.4,3.1C503.8,561.4,502.5,561.8,500.9,561.8z M501.4,559
				c1,0,1.9-0.2,2.5-0.7c0.7-0.5,1.1-1.2,1.4-2c0.3-0.9,0.5-1.9,0.5-3s-0.2-2.1-0.5-3c-0.3-0.9-0.8-1.5-1.4-2
				c-0.6-0.5-1.5-0.7-2.4-0.7c-1,0-1.9,0.3-2.6,0.8c-0.7,0.5-1.2,1.2-1.5,2.1c-0.3,0.9-0.5,1.8-0.5,2.9c0,1.1,0.2,2,0.5,2.9
				c0.3,0.9,0.8,1.6,1.5,2.1C499.5,558.7,500.4,559,501.4,559z M505.4,568.6v-11.8h0.4v-11.7h2.8v23.5H505.4z"/>
			<path class="st3" d="M513.1,542.4v-3.1h3.2v3.1H513.1z M513.1,561.4v-16.3h3.2v16.3H513.1z"/>
			<path class="st3" d="M521.1,561.4v-22.2h3.2v22.2H521.1z"/>
			<path class="st3" d="M535.8,561.8c-1.6,0-3-0.4-4.2-1.1c-1.2-0.7-2.1-1.7-2.8-3c-0.6-1.3-1-2.8-1-4.5c0-1.7,0.3-3.2,1-4.5
				c0.7-1.3,1.6-2.3,2.8-3c1.2-0.7,2.6-1.1,4.2-1.1c1.6,0,3,0.4,4.2,1.1c1.2,0.7,2.1,1.7,2.8,3c0.7,1.3,1,2.8,1,4.5
				c0,1.7-0.3,3.2-1,4.5s-1.6,2.3-2.8,3C538.9,561.4,537.5,561.8,535.8,561.8z M535.8,558.8c1.6,0,2.7-0.5,3.5-1.6
				c0.8-1.1,1.2-2.4,1.2-4.1c0-1.7-0.4-3.1-1.2-4.1c-0.8-1-1.9-1.5-3.5-1.5c-1.1,0-1.9,0.2-2.6,0.7c-0.7,0.5-1.2,1.1-1.5,2
				c-0.3,0.8-0.5,1.8-0.5,2.9c0,1.7,0.4,3.1,1.2,4.1C533.2,558.3,534.3,558.8,535.8,558.8z"/>
			<path class="st3" d="M547.1,561.4v-21.7h3.2v10h-0.4v11.7H547.1z M554.8,561.8c-1.6,0-2.9-0.4-3.9-1.1c-1.1-0.8-1.9-1.8-2.4-3.1
				c-0.5-1.3-0.8-2.8-0.8-4.4s0.3-3.1,0.8-4.4c0.5-1.3,1.3-2.3,2.4-3.1c1.1-0.7,2.3-1.1,3.9-1.1c1.5,0,2.8,0.4,4,1.1
				c1.1,0.7,2,1.8,2.6,3.1c0.6,1.3,0.9,2.8,0.9,4.4c0,1.6-0.3,3.1-0.9,4.4c-0.6,1.3-1.4,2.3-2.5,3.1
				C557.6,561.4,556.3,561.8,554.8,561.8z M554.4,559c1,0,1.8-0.3,2.5-0.8c0.7-0.5,1.2-1.2,1.5-2.1c0.3-0.9,0.5-1.8,0.5-2.9
				c0-1.1-0.2-2-0.5-2.9c-0.3-0.9-0.8-1.6-1.5-2.1c-0.7-0.5-1.5-0.8-2.6-0.8c-1,0-1.8,0.2-2.4,0.7c-0.6,0.5-1.1,1.2-1.4,2
				c-0.3,0.9-0.5,1.9-0.5,3s0.2,2.1,0.5,3c0.3,0.9,0.8,1.5,1.4,2C552.5,558.7,553.3,559,554.4,559z"/>
			<path class="st3" d="M572,561.8c-1.5,0-2.8-0.4-3.9-1.1c-1.1-0.8-2-1.8-2.5-3.1c-0.6-1.3-0.9-2.8-0.9-4.4c0-1.6,0.3-3.1,0.9-4.4
				c0.6-1.3,1.5-2.3,2.6-3.1c1.1-0.7,2.4-1.1,4-1.1c1.5,0,2.8,0.4,3.9,1.1c1.1,0.7,1.8,1.8,2.4,3.1c0.5,1.3,0.8,2.8,0.8,4.4
				s-0.3,3.1-0.8,4.4c-0.5,1.3-1.3,2.3-2.4,3.1C574.8,561.4,573.5,561.8,572,561.8z M572.4,559c1,0,1.9-0.2,2.5-0.7
				c0.7-0.5,1.1-1.2,1.4-2c0.3-0.9,0.5-1.9,0.5-3s-0.2-2.1-0.5-3c-0.3-0.9-0.8-1.5-1.4-2c-0.6-0.5-1.5-0.7-2.4-0.7
				c-1,0-1.9,0.3-2.6,0.8c-0.7,0.5-1.2,1.2-1.5,2.1c-0.3,0.9-0.5,1.8-0.5,2.9c0,1.1,0.2,2,0.5,2.9c0.3,0.9,0.8,1.6,1.5,2.1
				C570.6,558.7,571.4,559,572.4,559z M576.8,561.4v-11.7h-0.4v-10h3.2v21.7H576.8z"/>
			<path class="st3" d="M588.5,561.8c-1.2,0-2.2-0.2-3-0.7c-0.8-0.4-1.4-1-1.8-1.8c-0.4-0.7-0.6-1.6-0.6-2.4c0-0.8,0.1-1.5,0.4-2.2
				c0.3-0.6,0.7-1.2,1.3-1.6s1.3-0.8,2.1-1.1c0.7-0.2,1.5-0.4,2.5-0.6c0.9-0.2,1.9-0.3,2.9-0.5c1-0.1,2-0.3,3-0.4l-1.1,0.6
				c0-1.3-0.2-2.2-0.8-2.8c-0.6-0.6-1.5-0.9-2.9-0.9c-0.9,0-1.6,0.2-2.4,0.6c-0.7,0.4-1.2,1.1-1.5,2l-2.9-0.9
				c0.4-1.4,1.2-2.5,2.3-3.3c1.1-0.8,2.6-1.2,4.5-1.2c1.5,0,2.7,0.2,3.8,0.7c1.1,0.5,1.9,1.3,2.4,2.4c0.3,0.5,0.4,1.1,0.5,1.7
				c0.1,0.6,0.1,1.2,0.1,1.9v10h-2.8v-3.7l0.5,0.5c-0.7,1.2-1.5,2.2-2.6,2.8C591.3,561.5,590,561.8,588.5,561.8z M589,559.2
				c0.9,0,1.7-0.2,2.3-0.5c0.6-0.3,1.2-0.7,1.6-1.2c0.4-0.5,0.6-1,0.8-1.5c0.2-0.5,0.3-1,0.3-1.6c0-0.6,0-1.1,0-1.4l1,0.4
				c-1,0.2-1.9,0.3-2.7,0.4c-0.8,0.1-1.6,0.2-2.2,0.4c-0.7,0.1-1.2,0.3-1.8,0.4c-0.4,0.2-0.8,0.3-1.2,0.5c-0.3,0.2-0.6,0.5-0.8,0.8
				c-0.2,0.3-0.3,0.7-0.3,1.1c0,0.4,0.1,0.8,0.3,1.2c0.2,0.4,0.5,0.6,1,0.9C587.8,559.1,588.3,559.2,589,559.2z"/>
			<path class="st3" d="M607.4,542.4v-3.1h3.2v3.1H607.4z M607.4,561.4v-16.3h3.2v16.3H607.4z"/>
			<path class="st3" d="M621.3,561.8c-2,0-3.6-0.4-4.8-1.3c-1.2-0.9-2-2.1-2.3-3.7l3.2-0.5c0.2,0.8,0.7,1.5,1.4,2
				c0.7,0.5,1.6,0.7,2.7,0.7c1,0,1.8-0.2,2.3-0.6c0.6-0.4,0.8-1,0.8-1.7c0-0.4-0.1-0.7-0.3-1c-0.2-0.3-0.6-0.5-1.2-0.7
				c-0.6-0.2-1.6-0.5-2.9-0.9c-1.4-0.4-2.5-0.8-3.3-1.2c-0.8-0.4-1.4-0.9-1.7-1.5c-0.3-0.6-0.5-1.2-0.5-2c0-1,0.3-1.8,0.8-2.6
				c0.5-0.7,1.3-1.3,2.2-1.7c1-0.4,2.1-0.6,3.3-0.6c1.2,0,2.4,0.2,3.3,0.6c1,0.4,1.8,0.9,2.4,1.7c0.6,0.7,1,1.6,1.1,2.5l-3.2,0.6
				c-0.1-0.8-0.5-1.4-1.1-1.9c-0.6-0.5-1.4-0.7-2.4-0.7c-1,0-1.7,0.1-2.3,0.5c-0.6,0.4-0.9,0.8-0.9,1.5c0,0.4,0.1,0.7,0.3,0.9
				c0.2,0.3,0.7,0.5,1.3,0.7c0.7,0.2,1.6,0.5,2.9,0.8c1.4,0.4,2.5,0.7,3.3,1.2s1.4,0.9,1.7,1.5c0.3,0.6,0.5,1.3,0.5,2.1
				c0,1.6-0.6,2.9-1.8,3.8S623.3,561.8,621.3,561.8z"/>
			<path class="st3" d="M631.2,561.4v-21.7h2.8v11.7h0.4v10H631.2z M642.7,561.4v-8c0-0.6-0.1-1.3-0.2-2c-0.1-0.7-0.3-1.3-0.6-1.9
				c-0.3-0.6-0.7-1-1.3-1.4c-0.5-0.4-1.2-0.5-2.1-0.5c-0.6,0-1.1,0.1-1.6,0.3c-0.5,0.2-0.9,0.5-1.3,0.9c-0.4,0.4-0.7,1-0.9,1.6
				c-0.2,0.7-0.3,1.5-0.3,2.5l-2-0.7c0-1.5,0.3-2.8,0.8-3.9c0.6-1.1,1.3-2,2.4-2.6c1-0.6,2.3-1,3.8-1c1.1,0,2.1,0.2,2.8,0.5
				c0.8,0.4,1.4,0.8,1.9,1.4s0.8,1.2,1.1,1.9s0.4,1.4,0.5,2c0.1,0.7,0.1,1.2,0.1,1.7v9.1H642.7z"/>
			<path class="st3" d="M656.9,561.8c-1.6,0-3-0.4-4.2-1.1c-1.2-0.7-2.1-1.7-2.8-3c-0.6-1.3-1-2.8-1-4.5c0-1.7,0.3-3.2,1-4.5
				c0.7-1.3,1.6-2.3,2.8-3c1.2-0.7,2.6-1.1,4.2-1.1c1.6,0,3,0.4,4.2,1.1c1.2,0.7,2.1,1.7,2.8,3c0.7,1.3,1,2.8,1,4.5
				c0,1.7-0.3,3.2-1,4.5s-1.6,2.3-2.8,3C659.9,561.4,658.5,561.8,656.9,561.8z M656.9,558.8c1.6,0,2.7-0.5,3.5-1.6
				c0.8-1.1,1.2-2.4,1.2-4.1c0-1.7-0.4-3.1-1.2-4.1c-0.8-1-1.9-1.5-3.5-1.5c-1.1,0-1.9,0.2-2.6,0.7c-0.7,0.5-1.2,1.1-1.5,2
				c-0.3,0.8-0.5,1.8-0.5,2.9c0,1.7,0.4,3.1,1.2,4.1C654.2,558.3,655.3,558.8,656.9,558.8z"/>
			<path class="st3" d="M668.2,561.4v-16.3h2.8v4.7h0.4v11.6H668.2z M679.6,561.4v-8c0-0.6-0.1-1.3-0.2-2c-0.1-0.7-0.3-1.3-0.6-1.9
				c-0.3-0.6-0.7-1-1.3-1.4c-0.5-0.4-1.2-0.5-2.1-0.5c-0.6,0-1.1,0.1-1.6,0.3c-0.5,0.2-0.9,0.5-1.3,0.9c-0.4,0.4-0.7,1-0.9,1.6
				c-0.2,0.7-0.3,1.5-0.3,2.5l-2-0.7c0-1.5,0.3-2.8,0.8-3.9c0.6-1.1,1.3-2,2.4-2.6c1-0.6,2.3-1,3.8-1c1.1,0,2.1,0.2,2.8,0.5
				c0.8,0.4,1.4,0.8,1.9,1.4s0.8,1.2,1.1,1.9c0.3,0.7,0.4,1.4,0.5,2c0.1,0.7,0.1,1.2,0.1,1.7v9.1H679.6z"/>
			<path class="st3" d="M693.5,561.8c-1.7,0-3.1-0.4-4.3-1.1c-1.2-0.7-2.1-1.8-2.7-3.1c-0.6-1.3-0.9-2.8-0.9-4.4
				c0-1.7,0.3-3.2,1-4.5c0.6-1.3,1.5-2.3,2.7-3c1.2-0.7,2.6-1.1,4.2-1.1c1.8,0,3.3,0.4,4.6,1.3c1.3,0.9,2.1,2.1,2.5,3.6l-3.1,0.9
				c-0.3-0.9-0.8-1.6-1.5-2.1c-0.7-0.5-1.5-0.8-2.4-0.8c-1,0-1.9,0.2-2.5,0.7c-0.7,0.5-1.2,1.2-1.5,2s-0.5,1.8-0.5,2.9
				c0,1.7,0.4,3,1.2,4.1c0.8,1,1.9,1.6,3.4,1.6c1,0,1.8-0.2,2.5-0.7c0.6-0.5,1.1-1.1,1.4-2l3.2,0.8c-0.5,1.6-1.4,2.8-2.6,3.7
				C696.7,561.4,695.2,561.8,693.5,561.8z"/>
			<path class="st3" d="M703.7,561.4v-21.7h2.8v11.7h0.4v10H703.7z M715.1,561.4v-8c0-0.6-0.1-1.3-0.2-2c-0.1-0.7-0.3-1.3-0.6-1.9
				c-0.3-0.6-0.7-1-1.3-1.4c-0.5-0.4-1.2-0.5-2.1-0.5c-0.6,0-1.1,0.1-1.6,0.3c-0.5,0.2-0.9,0.5-1.3,0.9c-0.4,0.4-0.7,1-0.9,1.6
				c-0.2,0.7-0.3,1.5-0.3,2.5l-2-0.7c0-1.5,0.3-2.8,0.8-3.9s1.3-2,2.4-2.6c1-0.6,2.3-1,3.8-1c1.1,0,2.1,0.2,2.8,0.5
				c0.8,0.4,1.4,0.8,1.9,1.4s0.8,1.2,1.1,1.9s0.4,1.4,0.5,2c0.1,0.7,0.1,1.2,0.1,1.7v9.1H715.1z"/>
			<path class="st3" d="M722.5,561.4v-22.2h3.2v22.2H722.5z"/>
			<path class="st3" d="M730.5,542.4v-3.1h3.2v3.1H730.5z M730.5,561.4v-16.3h3.2v16.3H730.5z"/>
			<path class="st3" d="M744.2,561.4v-21.7h2.8v11.7h0.4v10H744.2z M755.7,561.4v-8c0-0.6-0.1-1.3-0.2-2c-0.1-0.7-0.3-1.3-0.6-1.9
				c-0.3-0.6-0.7-1-1.3-1.4c-0.5-0.4-1.2-0.5-2.1-0.5c-0.6,0-1.1,0.1-1.6,0.3c-0.5,0.2-0.9,0.5-1.3,0.9c-0.4,0.4-0.7,1-0.9,1.6
				c-0.2,0.7-0.3,1.5-0.3,2.5l-2-0.7c0-1.5,0.3-2.8,0.8-3.9c0.6-1.1,1.3-2,2.4-2.6c1-0.6,2.3-1,3.8-1c1.1,0,2.1,0.2,2.8,0.5
				c0.8,0.4,1.4,0.8,1.9,1.4s0.8,1.2,1.1,1.9c0.3,0.7,0.4,1.4,0.5,2c0.1,0.7,0.1,1.2,0.1,1.7v9.1H755.7z"/>
			<path class="st3" d="M767.4,561.8c-1.2,0-2.2-0.2-3-0.7c-0.8-0.4-1.4-1-1.8-1.8c-0.4-0.7-0.6-1.6-0.6-2.4c0-0.8,0.1-1.5,0.4-2.2
				c0.3-0.6,0.7-1.2,1.3-1.6c0.6-0.4,1.3-0.8,2.1-1.1c0.7-0.2,1.5-0.4,2.5-0.6c0.9-0.2,1.9-0.3,2.9-0.5s2-0.3,3-0.4l-1.1,0.6
				c0-1.3-0.2-2.2-0.8-2.8c-0.6-0.6-1.5-0.9-2.9-0.9c-0.9,0-1.6,0.2-2.4,0.6c-0.7,0.4-1.2,1.1-1.5,2l-2.9-0.9
				c0.4-1.4,1.2-2.5,2.3-3.3c1.1-0.8,2.6-1.2,4.5-1.2c1.5,0,2.7,0.2,3.8,0.7c1.1,0.5,1.9,1.3,2.4,2.4c0.3,0.5,0.4,1.1,0.5,1.7
				c0.1,0.6,0.1,1.2,0.1,1.9v10h-2.8v-3.7l0.5,0.5c-0.7,1.2-1.5,2.2-2.6,2.8C770.2,561.5,768.9,561.8,767.4,561.8z M767.9,559.2
				c0.9,0,1.7-0.2,2.3-0.5c0.6-0.3,1.2-0.7,1.6-1.2c0.4-0.5,0.6-1,0.8-1.5c0.2-0.5,0.3-1,0.3-1.6c0-0.6,0-1.1,0-1.4l1,0.4
				c-1,0.2-1.9,0.3-2.7,0.4c-0.8,0.1-1.6,0.2-2.2,0.4c-0.7,0.1-1.2,0.3-1.8,0.4c-0.4,0.2-0.8,0.3-1.2,0.5c-0.3,0.2-0.6,0.5-0.8,0.8
				c-0.2,0.3-0.3,0.7-0.3,1.1c0,0.4,0.1,0.8,0.3,1.2c0.2,0.4,0.5,0.6,1,0.9C766.7,559.1,767.3,559.2,767.9,559.2z"/>
			<path class="st3" d="M780,561.4v-16.3h2.8v4.7h0.4v11.6H780z M789.7,561.4l0-10.1c0-1.2-0.3-2.1-0.9-2.8c-0.6-0.7-1.4-1-2.4-1
				c-1,0-1.8,0.3-2.4,1c-0.6,0.7-0.9,1.6-0.9,2.7l-1.5-1c0-1.1,0.3-2,0.8-2.9c0.5-0.8,1.2-1.5,2.1-2c0.9-0.5,1.9-0.7,3-0.7
				c1.2,0,2.1,0.2,3,0.7c0.8,0.5,1.4,1.2,1.9,2c0.4,0.9,0.6,1.9,0.6,3l0,10.9H789.7z M799.5,561.4l0-10.2c0-1.2-0.3-2.1-0.9-2.8
				c-0.6-0.7-1.4-1-2.4-1c-0.6,0-1.2,0.1-1.7,0.4c-0.5,0.3-0.9,0.7-1.2,1.2c-0.3,0.5-0.5,1.2-0.5,2.1l-1.5-0.8c0-1.1,0.2-2.2,0.7-3
				c0.5-0.9,1.2-1.5,2.1-2s1.9-0.7,2.9-0.7c1.8,0,3.1,0.5,4.1,1.6c1,1.1,1.4,2.5,1.4,4.2l0,10.9H799.5z"/>
			<path class="st3" d="M806.6,561.4l0-21.7h3.2v13.3l6.4-7.8h4l-6.8,8.1l7.5,8.1h-4.3l-6.8-7.8v7.8H806.6z"/>
			<path class="st3" d="M829.2,561.8c-1.6,0-3-0.4-4.2-1.1c-1.2-0.7-2.1-1.7-2.8-3c-0.6-1.3-1-2.8-1-4.5c0-1.7,0.3-3.2,1-4.5
				c0.7-1.3,1.6-2.3,2.8-3c1.2-0.7,2.6-1.1,4.2-1.1c1.6,0,3,0.4,4.2,1.1c1.2,0.7,2.1,1.7,2.8,3c0.7,1.3,1,2.8,1,4.5
				c0,1.7-0.3,3.2-1,4.5s-1.6,2.3-2.8,3C832.2,561.4,830.8,561.8,829.2,561.8z M829.2,558.8c1.6,0,2.7-0.5,3.5-1.6
				c0.8-1.1,1.2-2.4,1.2-4.1c0-1.7-0.4-3.1-1.2-4.1c-0.8-1-1.9-1.5-3.5-1.5c-1.1,0-1.9,0.2-2.6,0.7c-0.7,0.5-1.2,1.1-1.5,2
				c-0.3,0.8-0.5,1.8-0.5,2.9c0,1.7,0.4,3.1,1.2,4.1C826.5,558.3,827.6,558.8,829.2,558.8z"/>
			<path class="st3" d="M840.5,561.4v-16.3h2.8v4l-0.4-0.5c0.2-0.5,0.5-1,0.8-1.4s0.7-0.8,1.1-1.1c0.4-0.3,0.9-0.5,1.4-0.7
				c0.5-0.2,1-0.3,1.6-0.3c0.5,0,1,0,1.5,0.1v3c-0.5-0.1-1.1-0.2-1.8-0.1s-1.2,0.3-1.8,0.6c-0.5,0.3-0.9,0.7-1.2,1.2
				c-0.3,0.5-0.5,1-0.6,1.6s-0.2,1.2-0.2,1.8v8.2H840.5z"/>
		</g>
	</g>
</g>
</svg>
